<?xml version="1.0" standalone="no"?>
<!DOCTYPE svg PUBLIC "-//W3C//DTD SVG 20010904//EN"
 "http://www.w3.org/TR/2001/REC-SVG-20010904/DTD/svg10.dtd">
<svg version="1.0" xmlns="http://www.w3.org/2000/svg"
 width="640.000000pt" height="640.000000pt" viewBox="0 0 640.000000 640.000000"
 preserveAspectRatio="xMidYMid meet">
<metadata>
Created by potrace 1.11, written by Peter Selinger 2001-2013
</metadata>
<g transform="translate(0.000000,640.000000) scale(0.100000,-0.100000)"
fill="#000000" stroke="none">
<path d="M4475 6215 c-99 -48 -185 -161 -203 -265 -19 -111 24 -246 102 -321
85 -81 159 -109 274 -106 138 4 252 79 315 206 29 59 32 74 32 156 0 82 -3 97
-33 158 -22 45 -51 82 -86 114 -77 67 -120 82 -246 82 -91 0 -112 -3 -155 -24z"/>
<path d="M2144 5650 c-180 -40 -245 -264 -113 -390 65 -61 161 -79 247 -45 53
22 116 92 130 146 43 168 -101 325 -264 289z"/>
<path d="M2699 5567 c-129 -68 -144 -237 -29 -329 125 -99 317 0 311 160 -5
148 -153 237 -282 169z"/>
<path d="M1435 5563 c-42 -9 -107 -48 -137 -82 -47 -53 -68 -108 -68 -178 -1
-242 289 -358 458 -183 181 186 2 499 -253 443z"/>
<path d="M3205 5406 c-153 -68 -109 -309 57 -318 87 -4 148 37 176 119 10 31
10 43 -3 103 -18 84 -141 135 -230 96z"/>
<path d="M4685 5224 c-110 -26 -182 -80 -227 -171 -87 -176 5 -383 193 -437
143 -42 310 37 372 174 29 65 29 188 1 251 -49 105 -149 176 -260 184 -32 2
-68 1 -79 -1z"/>
<path d="M3591 5172 c-48 -24 -73 -62 -78 -119 -14 -149 188 -210 267 -81 56
92 -17 218 -125 218 -16 0 -45 -8 -64 -18z"/>
<path d="M5481 5103 c-68 -17 -98 -33 -145 -79 -93 -91 -119 -257 -57 -373 47
-87 148 -151 251 -159 80 -5 134 8 196 51 96 65 143 156 139 270 -6 198 -193
339 -384 290z"/>
<path d="M2210 4939 c-84 -38 -127 -97 -137 -189 -21 -205 236 -328 385 -182
94 92 95 230 1 324 -70 70 -161 87 -249 47z"/>
<path d="M3896 4919 c-89 -24 -120 -144 -54 -207 84 -77 211 -24 210 89 -1 79
-80 138 -156 118z"/>
<path d="M2846 4890 c-79 -24 -133 -89 -141 -169 -17 -175 182 -282 317 -171
85 71 95 204 20 283 -15 16 -39 35 -54 43 -34 18 -105 25 -142 14z"/>
<path d="M1568 4875 c-2 -2 -15 -6 -30 -9 -87 -15 -172 -103 -195 -200 -29
-128 56 -273 182 -312 174 -52 344 73 346 256 2 138 -103 252 -244 264 -31 2
-57 2 -59 1z"/>
<path d="M3338 4720 c-100 -31 -144 -139 -97 -236 38 -80 139 -113 219 -74
183 92 73 371 -122 310z"/>
<path d="M742 4577 c-81 -29 -140 -80 -177 -153 -78 -154 -14 -344 143 -421
115 -57 266 -30 356 63 228 235 -14 619 -322 511z"/>
<path d="M3729 4490 c-40 -11 -75 -38 -88 -67 -47 -103 4 -201 110 -211 91 -9
150 41 156 132 3 38 -1 59 -16 83 -33 52 -103 79 -162 63z"/>
<path d="M4546 4344 c-66 -21 -137 -93 -161 -163 -76 -229 154 -432 369 -327
170 83 201 311 59 436 -76 66 -166 85 -267 54z"/>
<path d="M5407 4243 c-3 -2 -14 -6 -27 -8 -69 -13 -148 -88 -175 -166 -80
-227 155 -435 369 -328 200 100 193 391 -12 481 -39 18 -145 32 -155 21z"/>
<path d="M2565 4190 c-48 -11 -90 -36 -124 -76 -40 -45 -53 -76 -56 -137 -4
-66 12 -111 57 -162 145 -165 420 -42 395 177 -16 133 -144 227 -272 198z"/>
<path d="M3120 4108 c-180 -97 -116 -368 86 -368 152 0 243 154 173 292 -45
87 -169 124 -259 76z"/>
<path d="M1826 4096 c-143 -53 -216 -224 -153 -357 43 -90 90 -131 175 -154
246 -64 431 216 278 422 -63 84 -201 126 -300 89z"/>
<path d="M6050 3987 c-53 -11 -120 -55 -153 -100 -123 -166 -18 -403 187 -424
237 -24 384 260 226 439 -65 75 -161 106 -260 85z"/>
<path d="M3648 3953 c-90 -26 -137 -120 -107 -214 36 -110 189 -146 272 -65
61 59 71 139 26 212 -39 63 -114 90 -191 67z"/>
<path d="M1075 3821 c-87 -22 -164 -86 -204 -171 -35 -75 -36 -191 -1 -264 98
-204 371 -241 523 -71 37 41 69 124 71 188 9 209 -185 367 -389 318z"/>
<path d="M4330 3648 c-65 -19 -109 -58 -141 -125 -50 -108 -3 -242 106 -301
19 -11 55 -17 100 -17 58 0 78 5 116 27 167 98 139 358 -45 413 -56 17 -86 18
-136 3z"/>
<path d="M5135 3529 c-115 -44 -174 -162 -139 -279 37 -124 164 -188 295 -149
114 35 176 163 138 287 -35 119 -175 186 -294 141z"/>
<path d="M2580 3335 c-125 -56 -143 -208 -34 -291 32 -25 46 -29 99 -29 47 0
67 5 89 22 49 39 67 71 73 127 5 44 2 61 -18 95 -42 75 -136 109 -209 76z"/>
<path d="M265 3297 c-124 -42 -206 -120 -246 -234 -36 -103 -13 -264 49 -333
52 -59 93 -93 139 -115 215 -102 468 24 514 256 33 168 -52 335 -207 406 -67
30 -188 40 -249 20z"/>
<path d="M5814 3285 c-81 -24 -136 -75 -161 -151 -14 -41 -8 -136 11 -171 88
-166 327 -165 413 1 21 41 24 129 6 181 -36 107 -162 172 -269 140z"/>
<path d="M4041 3122 c-64 -6 -134 -64 -156 -129 -26 -75 -7 -150 51 -207 94
-92 248 -65 307 53 70 142 -41 298 -202 283z"/>
<path d="M2086 3099 c-62 -17 -108 -86 -101 -154 9 -94 117 -158 199 -117 61
30 86 70 86 134 0 94 -91 162 -184 137z"/>
<path d="M4822 2999 c-48 -14 -106 -77 -121 -131 -51 -182 156 -323 308 -210
61 44 90 152 62 225 -38 98 -142 146 -249 116z"/>
<path d="M1587 2979 c-82 -62 -63 -191 33 -220 50 -15 86 -5 127 36 27 27 33
40 33 77 -1 23 -6 53 -14 66 -33 60 -125 81 -179 41z"/>
<path d="M2688 2866 c-135 -60 -157 -249 -38 -335 79 -57 171 -54 243 9 139
123 54 342 -132 339 -25 0 -58 -6 -73 -13z"/>
<path d="M5469 2743 c-143 -60 -161 -261 -31 -344 25 -16 59 -29 74 -29 15 0
28 -5 28 -11 0 -8 4 -8 13 -1 6 6 29 13 49 17 25 5 52 21 77 46 94 95 72 256
-44 316 -39 21 -124 24 -166 6z"/>
<path d="M3640 2729 c-107 -45 -139 -188 -60 -271 87 -91 242 -59 280 58 25
74 0 150 -63 198 -30 22 -119 31 -157 15z"/>
<path d="M2085 2687 c-75 -25 -118 -86 -117 -163 3 -110 108 -189 211 -158
176 52 157 305 -24 327 -22 3 -53 0 -70 -6z"/>
<path d="M1521 2649 c-56 -22 -94 -96 -80 -157 22 -100 114 -145 206 -101 100
48 105 189 10 248 -36 22 -95 27 -136 10z"/>
<path d="M4467 2616 c-90 -32 -128 -110 -103 -212 7 -30 51 -78 91 -100 33
-17 101 -17 135 1 141 73 129 273 -20 315 -45 13 -57 12 -103 -4z"/>
<path d="M2969 2370 c-160 -48 -212 -258 -93 -377 150 -150 402 -37 389 174
-9 146 -155 246 -296 203z"/>
<path d="M4085 2365 c-16 -9 -41 -31 -54 -50 -19 -29 -23 -44 -19 -88 5 -63
29 -99 80 -123 73 -33 151 -3 187 72 59 123 -71 249 -194 189z"/>
<path d="M5135 2372 c-113 -37 -157 -157 -95 -257 67 -108 242 -93 290 25 35
85 4 177 -73 217 -33 17 -93 24 -122 15z"/>
<path d="M1541 2246 c-75 -22 -131 -113 -117 -189 21 -110 147 -173 245 -123
107 56 115 230 12 290 -44 26 -98 34 -140 22z"/>
<path d="M2169 2207 c-62 -33 -101 -92 -105 -158 -5 -89 34 -155 114 -191 135
-61 276 31 275 178 -2 144 -157 238 -284 171z"/>
<path d="M4744 2116 c-72 -31 -101 -129 -61 -201 56 -97 187 -99 248 -3 28 46
22 128 -12 164 -50 53 -112 67 -175 40z"/>
<path d="M4425 1992 c-58 -13 -101 -79 -91 -138 21 -112 162 -145 223 -52 65
98 -16 216 -132 190z"/>
<path d="M3418 1869 c-184 -50 -254 -289 -127 -433 54 -62 118 -90 199 -89
249 4 361 299 177 466 -63 57 -164 80 -249 56z"/>
<path d="M1645 1773 c-77 -26 -125 -95 -126 -180 -3 -103 78 -188 186 -197 54
-5 130 29 161 71 118 160 -35 371 -221 306z"/>
<path d="M2432 1705 c-82 -38 -131 -120 -127 -215 5 -148 141 -246 290 -209
126 32 199 185 145 305 -11 27 -31 59 -43 72 -62 67 -178 87 -265 47z"/>
<path d="M4053 1409 c-242 -83 -283 -415 -68 -557 26 -17 72 -36 103 -43 192
-40 367 96 378 293 11 215 -208 378 -413 307z"/>
<path d="M1930 1280 c-170 -47 -231 -256 -110 -380 104 -106 284 -89 360 35
26 41 31 65 31 131 1 81 -47 156 -124 195 -41 21 -116 30 -157 19z"/>
<path d="M2925 1221 c-178 -46 -261 -238 -170 -396 50 -87 127 -130 230 -129
162 1 276 126 263 288 -8 87 -45 150 -123 203 -49 33 -142 49 -200 34z"/>
<path d="M4965 1073 c-114 -28 -200 -99 -249 -203 -73 -154 -25 -344 112 -446
110 -81 268 -93 390 -30 80 41 157 138 182 229 19 69 9 181 -22 248 -71 154
-253 243 -413 202z"/>
<path d="M2385 780 c-56 -12 -105 -42 -145 -87 -116 -132 -77 -333 80 -414 69
-36 177 -34 248 5 89 50 135 129 135 236 0 108 -58 197 -158 241 -47 20 -117
29 -160 19z"/>
<path d="M3594 769 c-65 -12 -109 -34 -158 -79 -117 -108 -134 -288 -37 -416
20 -26 58 -62 85 -79 45 -27 58 -30 151 -33 120 -4 165 11 234 82 118 120 117
320 -1 438 -68 68 -182 105 -274 87z"/>
</g>
</svg>
